<svg width="87" height="23" viewBox="0 0 87 23" fill="none" xmlns="http://www.w3.org/2000/svg">
<g clip-path="url(#clip0_27_4)">
<path d="M21.6654 11.0588C21.2241 10.6175 20.7808 10.1742 20.3395 10.1762L16.5837 10.3979L9.73085 3.54505L8.62669 3.76671L11.9413 10.1762L8.84835 10.6175L6.85961 8.62876L5.53379 8.62876L6.41836 10.3958L5.75545 11.0588C5.53171 11.3115 5.53586 11.7217 5.75545 11.9413L6.41836 12.6042L5.53379 14.3712H6.85961L8.84835 12.3825L11.9413 12.8238L8.62669 19.2333L9.73085 19.455L16.5816 12.6042L20.3375 12.8258C20.7808 12.8258 21.222 12.3846 21.6654 11.9413C21.8849 11.7217 21.8849 11.2783 21.6654 11.0588Z" fill="#545454"/>
</g>
<line x1="24" y1="11.5" x2="51" y2="11.5" stroke="#777777"/>
<line x1="56" y1="11.5" x2="83" y2="11.5" stroke="#777777"/>
<circle cx="53.5" cy="11.5" r="1.4" stroke="#777777" stroke-width="0.2"/>
<circle cx="85.5" cy="11.5" r="1.4" fill="#777777" stroke="#777777" stroke-width="0.2"/>
<defs>
<clipPath id="clip0_27_4">
<rect width="15" height="15" fill="white" transform="translate(11.5 0.893402) rotate(45)"/>
</clipPath>
</defs>
</svg>
